# xmcd
#
# Track frame offsets: 
#        150
#        15083
#        33858
#        53200
#        72123
#        89775
#        108960
#        126953
#        144003
#        160995
#        176895
#        191488
#        206545
#        224028
#
# Disc length: 3248 seconds
#
# Revision: 0
# Processed by: cddbd v1.5.2PL0 Copyright (c) Steve Scherf et al.
# Submitted via: ExactAudioCopy v0.95a5
#
DISCID=c40cae0e
DTITLE=Little Axe - If You Want Loyalty Buy A Dog
DYEAR=2011
DGENRE=Blues
TTITLE0=Song To Sing
TTITLE1=Keep On Drinking
TTITLE2=Come Here Dog And Get Your Bone
TTITLE3=I Got Da Blues
TTITLE4=Call It What You Like
TTITLE5=I Ain't Going Down
TTITLE6=Grace
TTITLE7=Down And Dirty
TTITLE8=Seeing Red
TTITLE9=Moaning And Groaning
TTITLE10=Garfield Elementary
TTITLE11=National Style
TTITLE12=Early In The Morning
TTITLE13=Where From Here?
EXTD=
EXTT0=
EXTT1=
EXTT2=
EXTT3=
EXTT4=
EXTT5=
EXTT6=
EXTT7=
EXTT8=
EXTT9=
EXTT10=
EXTT11=
EXTT12=
EXTT13=
PLAYORDER=
